<?xml version="1.0" standalone="no"?>
<!DOCTYPE svg PUBLIC "-//W3C//DTD SVG 20010904//EN"
 "http://www.w3.org/TR/2001/REC-SVG-20010904/DTD/svg10.dtd">
<svg version="1.0" xmlns="http://www.w3.org/2000/svg"
 width="348.000000pt" height="348.000000pt" viewBox="0 0 348.000000 348.000000"
 preserveAspectRatio="xMidYMid meet">

<g transform="translate(0.000000,348.000000) scale(0.100000,-0.100000)"
fill="#000000" stroke="none">
<path d="M1554 3360 c-548 -70 -1021 -399 -1268 -883 -195 -382 -230 -847 -95
-1252 79 -235 200 -434 378 -619 216 -223 470 -371 772 -449 148 -39 270 -50
457 -45 252 8 425 51 661 165 l114 55 149 -149 148 -148 217 218 218 217 -136
137 -137 138 59 85 c162 234 264 541 276 836 20 460 -150 897 -477 1224 -132
131 -258 222 -425 305 -235 116 -425 163 -685 170 -85 2 -187 0 -226 -5z m392
-624 c138 -29 275 -89 389 -171 138 -98 277 -273 345 -432 56 -134 74 -230 74
-398 0 -130 -4 -163 -27 -249 -22 -82 -90 -242 -125 -294 -6 -9 -53 33 -162
143 l-154 155 -218 -217 -218 -218 132 -132 132 -132 -34 -15 c-19 -8 -82 -24
-139 -36 -89 -19 -124 -22 -240 -17 -205 8 -364 59 -537 173 -78 51 -210 183
-264 263 -62 93 -126 234 -152 337 -31 124 -31 370 0 486 113 414 446 711 862
768 84 11 248 4 336 -14z"/>
</g>
</svg>
